<?xml version="1.0" encoding="UTF-8" standalone="no"?>
<!-- Created with Inkscape (http://www.inkscape.org/) -->

<svg
   xmlns:dc="http://purl.org/dc/elements/1.1/"
   xmlns:cc="http://creativecommons.org/ns#"
   xmlns:rdf="http://www.w3.org/1999/02/22-rdf-syntax-ns#"
   xmlns:svg="http://www.w3.org/2000/svg"
   xmlns="http://www.w3.org/2000/svg"
   xmlns:sodipodi="http://sodipodi.sourceforge.net/DTD/sodipodi-0.dtd"
   xmlns:inkscape="http://www.inkscape.org/namespaces/inkscape"
   sodipodi:docname="racebaan.svg"
   width="2125.9841"
   height="1062.9921"
   id="svg2"
   version="1.1"
   inkscape:version="0.48.5 r10040">
  <sodipodi:namedview
     id="base"
     pagecolor="#ffffff"
     bordercolor="#666666"
     borderopacity="1.0"
     inkscape:pageopacity="0.0"
     inkscape:pageshadow="2"
     inkscape:zoom="0.5"
     inkscape:cx="1226.2214"
     inkscape:cy="520.75176"
     inkscape:document-units="mm"
     inkscape:current-layer="svg2"
     showgrid="false"
     inkscape:window-width="1680"
     inkscape:window-height="1006"
     inkscape:window-x="1738"
     inkscape:window-y="56"
     inkscape:window-maximized="0"
     units="mm"
     inkscape:snap-global="false" />
  <defs
     id="defs4" />
  <metadata
     id="metadata7">
    <rdf:RDF>
      <cc:Work
         rdf:about="">
        <dc:format>image/svg+xml</dc:format>
        <dc:type
           rdf:resource="http://purl.org/dc/dcmitype/StillImage" />
        <dc:title />
      </cc:Work>
    </rdf:RDF>
  </metadata>
  <g
     id="layer1"
     inkscape:groupmode="layer"
     inkscape:label="Layer 1"
     transform="translate(0,10.629928)" />
  <g
     id="g3076"
     inkscape:groupmode="layer"
     inkscape:label="newlayer"
     transform="translate(0,10.629928)" />
  <g
     inkscape:label="newlayer"
     inkscape:groupmode="layer"
     id="g4270" />
  <g
     id="g5205"
     inkscape:groupmode="layer"
     inkscape:label="newlayer" />
  <g
     inkscape:label="newlayer"
     inkscape:groupmode="layer"
     id="g3462" />
  <path
     d="m 31.889764,413.41732 14.013779,0 0,-14.17323 28.665355,0 0,14.17323 28.027562,0 0,-14.17323 28.66535,0 0,14.17323 28.02756,0 0,-14.17323 28.66535,0 0,14.17323 28.02756,0 0,-14.17323 28.66536,0 0,14.17323 28.02756,0 0,-14.17323 28.66535,0 0,14.17323 14.01378,0"
     style="fill:none;stroke:#ff0000;stroke-width:0.35433072;stroke-miterlimit:4;stroke-opacity:1;stroke-dasharray:none"
     inkscape:label="part"
     id="path3472"
     inkscape:connector-curvature="0" />
  <path
     d="m 315.35433,413.41732 0,14.01378 14.17323,0 0,28.66536 -14.17323,0 0,28.02756 14.17323,0 0,28.66535 -14.17323,0 0,28.02756 14.17323,0 0,28.66535 -14.17323,0 0,28.02756 14.17323,0 0,28.66536 -14.17323,0 0,28.02756 14.17323,0 0,28.66535 -14.17323,0 0,14.01378"
     style="fill:none;stroke:#ff0000;stroke-width:0.35433072;stroke-miterlimit:4;stroke-opacity:1;stroke-dasharray:none"
     inkscape:label="part"
     id="path3474"
     inkscape:connector-curvature="0" />
  <path
     d="m 315.35433,696.88189 -14.01378,0 0,14.17323 -28.66535,0 0,-14.17323 -28.02756,0 0,14.17323 -28.66536,0 0,-14.17323 -28.02756,0 0,14.17323 -28.66535,0 0,-14.17323 -28.02756,0 0,14.17323 -28.66535,0 0,-14.17323 -28.027562,0 0,14.17323 -28.665355,0 0,-14.17323 -14.013779,0"
     style="fill:none;stroke:#ff0000;stroke-width:0.35433072;stroke-miterlimit:4;stroke-opacity:1;stroke-dasharray:none"
     inkscape:label="part"
     id="path3476"
     inkscape:connector-curvature="0" />
  <path
     d="m 31.889764,696.88189 0,-14.01378 -14.173229,0 0,-28.66535 14.173229,0 0,-28.02756 -14.173229,0 0,-28.66536 14.173229,0 0,-28.02756 -14.173229,0 0,-28.66535 14.173229,0 0,-28.02756 -14.173229,0 0,-28.66535 14.173229,0 0,-28.02756 -14.173229,0 0,-28.66536 14.173229,0 0,-14.01378"
     style="fill:none;stroke:#ff0000;stroke-width:0.35433072;stroke-miterlimit:4;stroke-opacity:1;stroke-dasharray:none"
     inkscape:label="part"
     id="path3478"
     inkscape:connector-curvature="0" />
  <path
     inkscape:connector-curvature="0"
     d="m 354.83031,350.28773 32.63977,0 0,14.17323 28.02756,0 0,-14.17323 32.79921,0 0,14.17323 28.02756,0 0,-14.17323 32.79921,0 0,14.17323 28.02756,0 0,-14.17323 32.79921,0 0,14.17323 28.02756,0 0,-14.17323 32.79921,0 0,14.17323 28.02756,0 0,-14.17323 32.79922,0 0,14.17323 28.02755,0 0,-14.17323 32.79922,0 0,14.17323 28.02756,0 0,-14.17323 32.79921,0 0,14.17323 28.02756,0 0,-14.17323 32.79921,0 0,14.17323 28.02756,0 0,-14.17323 32.79921,0 0,14.17323 28.02756,0 0,-14.17323 32.7993,0 0,14.17323 28.02762,0 0,-14.17323 32.6397,0"
     style="fill:none;stroke:#ff0000;stroke-width:0.35433071;stroke-miterlimit:4;stroke-opacity:1;stroke-dasharray:none;fill-opacity:1"
     inkscape:label="part"
     id="path3480" />
  <path
     inkscape:connector-curvature="0"
     d="m 1056.4052,350.28773 0,28.50591 -14.1732,0 0,28.02756 14.1732,0 0,28.66535 -14.1732,0 0,28.02756 14.1732,0 0,28.66536 -14.1732,0 0,28.02756 14.1732,0 0,28.66535 -14.1732,0 0,28.02756 14.1732,0 0,28.66535 -14.1732,0 0,28.02756 14.1732,0 0,28.50591"
     style="fill:none;stroke:#ff0000;stroke-width:0.35433071;stroke-miterlimit:4;stroke-opacity:1;stroke-dasharray:none;fill-opacity:1"
     inkscape:label="part"
     id="path3482" />
  <path
     inkscape:connector-curvature="0"
     d="m 1056.4052,662.09876 -32.6397,0 0,-14.17323 -28.02762,0 0,14.17323 -32.7993,0 0,-14.17323 -28.02756,0 0,14.17323 -32.79921,0 0,-14.17323 -28.02756,0 0,14.17323 -32.79921,0 0,-14.17323 -28.02756,0 0,14.17323 -32.79921,0 0,-14.17323 -28.02756,0 0,14.17323 -32.79922,0 0,-14.17323 -28.02755,0 0,14.17323 -32.79922,0 0,-14.17323 -28.02756,0 0,14.17323 -32.79921,0 0,-14.17323 -28.02756,0 0,14.17323 -32.79921,0 0,-14.17323 -28.02756,0 0,14.17323 -32.79921,0 0,-14.17323 -28.02756,0 0,14.17323 -32.79921,0 0,-14.17323 -28.02756,0 0,14.17323 -32.63977,0"
     style="fill:none;stroke:#ff0000;stroke-width:0.35433071;stroke-miterlimit:4;stroke-opacity:1;stroke-dasharray:none;fill-opacity:1"
     inkscape:label="part"
     id="path3484" />
  <path
     inkscape:connector-curvature="0"
     d="m 354.83031,662.09876 0,-28.50591 14.17323,0 0,-28.02756 -14.17323,0 0,-28.66535 14.17323,0 0,-28.02756 -14.17323,0 0,-28.66535 14.17323,0 0,-28.02756 -14.17323,0 0,-28.66536 14.17323,0 0,-28.02756 -14.17323,0 0,-28.66535 14.17323,0 0,-28.02756 -14.17323,0 0,-28.50591"
     style="fill:none;stroke:#ff0000;stroke-width:0.35433071;stroke-miterlimit:4;stroke-opacity:1;stroke-dasharray:none;fill-opacity:1"
     inkscape:label="part"
     id="path3486" />
  <path
     inkscape:connector-curvature="0"
     d="m 32.321565,747.28829 14.013779,0 0,-14.17323 28.665354,0 0,14.17323 28.027562,0 0,-14.17323 28.66535,0 0,14.17323 28.02756,0 0,-14.17323 28.66536,0 0,14.17323 28.02755,0 0,-14.17323 28.66536,0 0,14.17323 28.02756,0 0,-14.17323 28.66535,0 0,14.17323 14.01378,0"
     style="fill:none;stroke:#ff0000;stroke-width:0.35433072;stroke-miterlimit:4;stroke-opacity:1;stroke-dasharray:none"
     inkscape:label="part"
     id="path3488" />
  <path
     inkscape:connector-curvature="0"
     d="m 315.78613,747.28829 0,14.01378 14.17323,0 0,28.66535 -14.17323,0 0,28.02756 14.17323,0 0,28.66536 -14.17323,0 0,28.02756 14.17323,0 0,28.66535 -14.17323,0 0,28.02756 14.17323,0 0,28.66535 -14.17323,0 0,28.02756 14.17323,0 0,28.66538 -14.17323,0 0,14.0138"
     style="fill:none;stroke:#ff0000;stroke-width:0.35433072;stroke-miterlimit:4;stroke-opacity:1;stroke-dasharray:none"
     inkscape:label="part"
     id="path3490" />
  <path
     inkscape:connector-curvature="0"
     d="m 315.78613,1030.7529 -14.01378,0 0,14.1732 -28.66535,0 0,-14.1732 -28.02756,0 0,14.1732 -28.66536,0 0,-14.1732 -28.02755,0 0,14.1732 -28.66536,0 0,-14.1732 -28.02756,0 0,14.1732 -28.66535,0 0,-14.1732 -28.027562,0 0,14.1732 -28.665354,0 0,-14.1732 -14.013779,0"
     style="fill:none;stroke:#ff0000;stroke-width:0.35433072;stroke-miterlimit:4;stroke-opacity:1;stroke-dasharray:none"
     inkscape:label="part"
     id="path3492" />
  <path
     inkscape:connector-curvature="0"
     d="m 32.321565,1030.7529 0,-14.0138 -14.173229,0 0,-28.66538 14.173229,0 0,-28.02756 -14.173229,0 0,-28.66535 14.173229,0 0,-28.02756 -14.173229,0 0,-28.66535 14.173229,0 0,-28.02756 -14.173229,0 0,-28.66536 14.173229,0 0,-28.02756 -14.173229,0 0,-28.66535 14.173229,0 0,-14.01378"
     style="fill:none;stroke:#ff0000;stroke-width:0.35433072;stroke-miterlimit:4;stroke-opacity:1;stroke-dasharray:none"
     inkscape:label="part"
     id="path3494" />
  <path
     inkscape:connector-curvature="0"
     d="m 1084.779,21.318164 32.6398,0 0,14.17323 28.0276,0 0,-14.17323 32.7992,0 0,14.17323 28.0275,0 0,-14.17323 32.7993,0 0,14.17323 28.0275,0 0,-14.17323 32.7992,0 0,14.17323 28.0276,0 0,-14.17323 32.7992,0 0,14.17323 28.0276,0 0,-14.17323 32.7992,0 0,14.17323 28.0275,0 0,-14.17323 32.7992,0 0,14.17323 28.0276,0 0,-14.17323 32.7992,0 0,14.17323 28.0276,0 0,-14.17323 32.7992,0 0,14.17323 28.0275,0 0,-14.17323 32.7993,0 0,14.17323 28.0275,0 0,-14.17323 32.7992,0 0,14.17323 28.0276,0 0,-14.17323 32.6397,0"
     style="fill:none;stroke:#ff0000;stroke-width:0.35433071;stroke-miterlimit:4;stroke-opacity:1;stroke-dasharray:none;fill-opacity:1"
     inkscape:label="part"
     id="path3496" />
  <path
     inkscape:connector-curvature="0"
     d="m 1786.3538,21.318164 0,28.50591 -14.1732,0 0,28.02756 14.1732,0 0,28.665346 -14.1732,0 0,28.02756 14.1732,0 0,28.66536 -14.1732,0 0,28.02756 14.1732,0 0,28.66535 -14.1732,0 0,28.02756 14.1732,0 0,28.66535 -14.1732,0 0,28.02756 14.1732,0 0,28.50591"
     style="fill:none;stroke:#ff0000;stroke-width:0.35433071;stroke-miterlimit:4;stroke-opacity:1;stroke-dasharray:none;fill-opacity:1"
     inkscape:label="part"
     id="path3498" />
  <path
     inkscape:connector-curvature="0"
     d="m 1786.3538,333.12919 -32.6397,0 0,-14.17323 -28.0276,0 0,14.17323 -32.7992,0 0,-14.17323 -28.0275,0 0,14.17323 -32.7993,0 0,-14.17323 -28.0275,0 0,14.17323 -32.7992,0 0,-14.17323 -28.0276,0 0,14.17323 -32.7992,0 0,-14.17323 -28.0276,0 0,14.17323 -32.7992,0 0,-14.17323 -28.0275,0 0,14.17323 -32.7992,0 0,-14.17323 -28.0276,0 0,14.17323 -32.7992,0 0,-14.17323 -28.0276,0 0,14.17323 -32.7992,0 0,-14.17323 -28.0275,0 0,14.17323 -32.7993,0 0,-14.17323 -28.0275,0 0,14.17323 -32.7992,0 0,-14.17323 -28.0276,0 0,14.17323 -32.6398,0"
     style="fill:none;stroke:#ff0000;stroke-width:0.35433071;stroke-miterlimit:4;stroke-opacity:1;stroke-dasharray:none;fill-opacity:1"
     inkscape:label="part"
     id="path3500" />
  <path
     inkscape:connector-curvature="0"
     d="m 1084.779,333.12919 0,-28.50591 14.1733,0 0,-28.02756 -14.1733,0 0,-28.66535 14.1733,0 0,-28.02756 -14.1733,0 0,-28.66535 14.1733,0 0,-28.02756 -14.1733,0 0,-28.66536 14.1733,0 0,-28.02756 -14.1733,0 0,-28.665346 14.1733,0 0,-28.02756 -14.1733,0 0,-28.50591"
     style="fill:none;stroke:#ff0000;stroke-width:0.35433071;stroke-miterlimit:4;stroke-opacity:1;stroke-dasharray:none;fill-opacity:1"
     inkscape:label="part"
     id="path3502" />
  <path
     inkscape:connector-curvature="0"
     d="m 354.83031,34.933401 32.32087,0 0,-14.173229 28.66535,0 0,14.173229 32.16142,0 0,-14.173229 28.66536,0 0,14.173229 32.16141,0 0,-14.173229 28.66536,0 0,14.173229 32.16141,0 0,-14.173229 28.66536,0 0,14.173229 32.16142,0 0,-14.173229 28.66535,0 0,14.173229 32.16142,0 0,-14.173229 28.66535,0 0,14.173229 32.16142,0 0,-14.173229 28.66535,0 0,14.173229 32.16142,0 0,-14.173229 28.66536,0 0,14.173229 32.16141,0 0,-14.173229 28.66536,0 0,14.173229 32.16141,0 0,-14.173229 28.66536,0 0,14.173229 32.1615,0 0,-14.173229 28.66542,0 0,14.173229 32.3208,0"
     style="fill:none;stroke:#ff0000;stroke-width:0.35433071;stroke-miterlimit:4;stroke-opacity:1;stroke-dasharray:none;fill-opacity:1"
     inkscape:label="part"
     id="path3504" />
  <path
     inkscape:connector-curvature="0"
     d="m 1056.4052,34.933401 0,14.332677 -14.1732,0 0,28.027559 14.1732,0 0,28.665353 -14.1732,0 0,28.02756 14.1732,0 0,28.66536 -14.1732,0 0,28.02756 14.1732,0 0,28.66535 -14.1732,0 0,28.02756 14.1732,0 0,28.66535 -14.1732,0 0,28.02756 14.1732,0 0,14.33268"
     style="fill:none;stroke:#ff0000;stroke-width:0.35433071;stroke-miterlimit:4;stroke-opacity:1;stroke-dasharray:none;fill-opacity:1"
     inkscape:label="part"
     id="path3506" />
  <path
     inkscape:connector-curvature="0"
     d="m 1056.4052,318.39797 -32.3208,0 0,14.17323 -28.66542,0 0,-14.17323 -32.1615,0 0,14.17323 -28.66536,0 0,-14.17323 -32.16141,0 0,14.17323 -28.66536,0 0,-14.17323 -32.16141,0 0,14.17323 -28.66536,0 0,-14.17323 -32.16142,0 0,14.17323 -28.66535,0 0,-14.17323 -32.16142,0 0,14.17323 -28.66535,0 0,-14.17323 -32.16142,0 0,14.17323 -28.66535,0 0,-14.17323 -32.16142,0 0,14.17323 -28.66536,0 0,-14.17323 -32.16141,0 0,14.17323 -28.66536,0 0,-14.17323 -32.16141,0 0,14.17323 -28.66536,0 0,-14.17323 -32.16142,0 0,14.17323 -28.66535,0 0,-14.17323 -32.32087,0"
     style="fill:none;stroke:#ff0000;stroke-width:0.35433071;stroke-miterlimit:4;stroke-opacity:1;stroke-dasharray:none;fill-opacity:1"
     inkscape:label="part"
     id="path3508" />
  <path
     inkscape:connector-curvature="0"
     d="m 354.83031,318.39797 0,-14.33268 14.17323,0 0,-28.02756 -14.17323,0 0,-28.66535 14.17323,0 0,-28.02756 -14.17323,0 0,-28.66535 14.17323,0 0,-28.02756 -14.17323,0 0,-28.66536 14.17323,0 0,-28.02756 -14.17323,0 0,-28.665353 14.17323,0 0,-28.027559 -14.17323,0 0,-14.332677"
     style="fill:none;stroke:#ff0000;stroke-width:0.35433071;stroke-miterlimit:4;stroke-opacity:1;stroke-dasharray:none;fill-opacity:1"
     inkscape:label="part"
     id="path3510" />
  <path
     inkscape:connector-curvature="0"
     id="path4389"
     d="m 585.47798,340.3254 c 0,-323.976714 -0.66666,-323.976714 -0.66666,-323.976714"
     style="fill:none;stroke:#ff0000;stroke-width:0.35433071;stroke-linecap:butt;stroke-linejoin:miter;stroke-miterlimit:4;stroke-opacity:1;stroke-dasharray:none;fill-opacity:1" />
  <path
     transform="matrix(1.0230705,0,0,-1.2276845,-451.63056,208.71509)"
     d="m 1139.149,95.669991 a 8.485281,7.0710678 0 1 1 -16.9706,0 8.485281,7.0710678 0 1 1 16.9706,0 z"
     sodipodi:ry="7.0710678"
     sodipodi:rx="8.485281"
     sodipodi:cy="95.669991"
     sodipodi:cx="1130.6637"
     id="path4424"
     style="fill:none;stroke:#ff0000;stroke-width:0.31616414;stroke-miterlimit:4;stroke-opacity:1;stroke-dasharray:none"
     sodipodi:type="arc" />
  <rect
     y="526.47223"
     x="682.21906"
     height="81.231239"
     width="45.798168"
     id="rect4525"
     style="fill:none;stroke:#ff0000;stroke-width:0.35433072;stroke-miterlimit:4;stroke-opacity:1;stroke-dasharray:none" />
  <g
     id="g5830"
     inkscape:groupmode="layer"
     inkscape:label="newlayer" />
  <path
     sodipodi:type="arc"
     style="fill:none;stroke:#ff0000;stroke-width:0.31616414;stroke-miterlimit:4;stroke-opacity:1;stroke-dasharray:none"
     id="path5989"
     sodipodi:cx="1130.6637"
     sodipodi:cy="95.669991"
     sodipodi:rx="8.485281"
     sodipodi:ry="7.0710678"
     d="m 1139.149,95.669991 a 8.485281,7.0710678 0 1 1 -16.9706,0 8.485281,7.0710678 0 1 1 16.9706,0 z"
     transform="matrix(1.0230705,0,0,1.2276845,-451.63062,-0.9467958)" />
  <path
     transform="matrix(1.0230705,0,0,1.2276845,-451.63062,24.945096)"
     d="m 1139.149,95.669991 a 8.485281,7.0710678 0 1 1 -16.9706,0 8.485281,7.0710678 0 1 1 16.9706,0 z"
     sodipodi:ry="7.0710678"
     sodipodi:rx="8.485281"
     sodipodi:cy="95.669991"
     sodipodi:cx="1130.6637"
     id="path5991"
     style="fill:none;stroke:#ff0000;stroke-width:0.31616414;stroke-miterlimit:4;stroke-opacity:1;stroke-dasharray:none"
     sodipodi:type="arc" />
  <path
     sodipodi:type="arc"
     style="fill:none;stroke:#ff0000;stroke-width:0.31616414;stroke-miterlimit:4;stroke-opacity:1;stroke-dasharray:none"
     id="path5993"
     sodipodi:cx="1130.6637"
     sodipodi:cy="95.669991"
     sodipodi:rx="8.485281"
     sodipodi:ry="7.0710678"
     d="m 1139.149,95.669991 a 8.485281,7.0710678 0 1 1 -16.9706,0 8.485281,7.0710678 0 1 1 16.9706,0 z"
     transform="matrix(1.0230705,0,0,1.2276845,-451.63062,49.26942)" />
  <path
     transform="matrix(1.0230705,0,0,1.2276845,-451.63062,76.458609)"
     d="m 1139.149,95.669991 a 8.485281,7.0710678 0 1 1 -16.9706,0 8.485281,7.0710678 0 1 1 16.9706,0 z"
     sodipodi:ry="7.0710678"
     sodipodi:rx="8.485281"
     sodipodi:cy="95.669991"
     sodipodi:cx="1130.6637"
     id="path5995"
     style="fill:none;stroke:#ff0000;stroke-width:0.31616414;stroke-miterlimit:4;stroke-opacity:1;stroke-dasharray:none"
     sodipodi:type="arc" />
  <path
     style="fill:none;stroke:#ff0000;stroke-width:0.35433071;stroke-linecap:butt;stroke-linejoin:miter;stroke-opacity:1;stroke-miterlimit:4;stroke-dasharray:none"
     d="m 381.08108,48.397471 c 203.78378,0 203.78378,0 203.78378,0 l 0,0"
     id="path5997"
     inkscape:connector-curvature="0" />
  <path
     style="fill:none;stroke:#ff0000;stroke-width:0.35433071;stroke-linecap:butt;stroke-linejoin:miter;stroke-opacity:1;stroke-miterlimit:4;stroke-dasharray:none"
     d="m 381.62162,48.429965 0,246.962035"
     id="path5999"
     inkscape:connector-curvature="0" />
  <path
     inkscape:connector-curvature="0"
     id="path6001"
     d="m 364.11469,295.4245 c 220.73543,0 220.73543,0 220.73543,0 l 0,0"
     style="fill:none;stroke:#ff0000;stroke-width:0.36877379;stroke-linecap:butt;stroke-linejoin:miter;stroke-miterlimit:4;stroke-opacity:1;stroke-dasharray:none" />
  <path
     style="fill:none;stroke:#ff0000;stroke-width:0.35433072;stroke-linecap:butt;stroke-linejoin:miter;stroke-miterlimit:4;stroke-opacity:1;stroke-dasharray:none"
     d="m 829.08108,339.2688 c 0,-323.976717 0.66666,-323.976717 0.66666,-323.976717"
     id="path6003"
     inkscape:connector-curvature="0" />
  <path
     inkscape:connector-curvature="0"
     id="path6005"
     d="m 1033.478,47.340868 c -203.7838,0 -203.7838,0 -203.7838,0 l 0,0"
     style="fill:none;stroke:#ff0000;stroke-width:0.35433072;stroke-linecap:butt;stroke-linejoin:miter;stroke-miterlimit:4;stroke-opacity:1;stroke-dasharray:none" />
  <path
     inkscape:connector-curvature="0"
     id="path6007"
     d="m 1032.9374,47.373362 0,246.962038"
     style="fill:none;stroke:#ff0000;stroke-width:0.35433072;stroke-linecap:butt;stroke-linejoin:miter;stroke-miterlimit:4;stroke-opacity:1;stroke-dasharray:none" />
  <path
     style="fill:none;stroke:#ff0000;stroke-width:0.36601004;stroke-linecap:butt;stroke-linejoin:miter;stroke-miterlimit:4;stroke-opacity:1;stroke-dasharray:none"
     d="m 1047.1454,294.3679 c -217.43933,0 -217.43933,0 -217.43933,0 l 0,0"
     id="path6009"
     inkscape:connector-curvature="0" />
  <path
     sodipodi:type="arc"
     style="fill:none;stroke:#ff0000;stroke-width:0.31616414;stroke-miterlimit:4;stroke-opacity:1;stroke-dasharray:none"
     id="path6011"
     sodipodi:cx="1130.6637"
     sodipodi:cy="95.669991"
     sodipodi:rx="8.485281"
     sodipodi:ry="7.0710678"
     d="m 1139.149,95.669991 a 8.485281,7.0710678 0 1 1 -16.9706,0 8.485281,7.0710678 0 1 1 16.9706,0 z"
     transform="matrix(1.0230705,0,0,-1.2276845,-687.26055,725.12973)" />
  <path
     transform="matrix(1.0230705,0,0,-1.2276845,-216.0007,725.12973)"
     d="m 1139.149,95.669991 a 8.485281,7.0710678 0 1 1 -16.9706,0 8.485281,7.0710678 0 1 1 16.9706,0 z"
     sodipodi:ry="7.0710678"
     sodipodi:rx="8.485281"
     sodipodi:cy="95.669991"
     sodipodi:cx="1130.6637"
     id="path6013"
     style="fill:none;stroke:#ff0000;stroke-width:0.31616414;stroke-miterlimit:4;stroke-opacity:1;stroke-dasharray:none"
     sodipodi:type="arc" />
  <rect
     style="fill:none;stroke:#ff0000;stroke-width:0.40417424;stroke-miterlimit:4;stroke-opacity:1;stroke-dasharray:none"
     id="rect6043"
     width="141.32811"
     height="134.2415"
     x="1134.0603"
     y="205.71384" />
  <rect
     y="205.71384"
     x="1594.6903"
     height="134.2415"
     width="141.32811"
     id="rect6045"
     style="fill:none;stroke:#ff0000;stroke-width:0.40417424;stroke-miterlimit:4;stroke-opacity:1;stroke-dasharray:none" />
  <rect
     style="fill:none;stroke:#ff0000;stroke-width:0.35433072;stroke-miterlimit:4;stroke-opacity:1;stroke-dasharray:none"
     id="rect6102"
     width="21.046913"
     height="21.046913"
     x="693.26257"
     y="410.01587" />
  <path
     inkscape:connector-curvature="0"
     d="m 1083.497,366.65519 32.3208,0 0,-14.17323 28.6654,0 0,14.17323 32.1614,0 0,-14.17323 28.6654,0 0,14.17323 32.1614,0 0,-14.17323 28.6653,0 0,14.17323 32.1615,0 0,-14.17323 28.6653,0 0,14.17323 32.1614,0 0,-14.17323 28.6654,0 0,14.17323 32.1614,0 0,-14.17323 28.6654,0 0,14.17323 32.1614,0 0,-14.17323 28.6653,0 0,14.17323 32.1614,0 0,-14.17323 28.6654,0 0,14.17323 32.1614,0 0,-14.17323 28.6654,0 0,14.17323 32.1614,0 0,-14.17323 28.6653,0 0,14.17323 32.1615,0 0,-14.17323 28.6655,0 0,14.17323 32.3208,0"
     style="fill:none;stroke:#ff0000;stroke-width:0.35433072;stroke-miterlimit:4;stroke-opacity:1;stroke-dasharray:none"
     inkscape:label="part"
     id="path6128" />
  <path
     inkscape:connector-curvature="0"
     d="m 1785.0719,366.65519 0,14.33268 -14.1732,0 0,28.02756 14.1732,0 0,28.66535 -14.1732,0 0,28.02756 14.1732,0 0,28.66536 -14.1732,0 0,28.02755 14.1732,0 0,28.66536 -14.1732,0 0,28.02756 14.1732,0 0,28.66535 -14.1732,0 0,28.02758 14.1732,0 0,14.3327"
     style="fill:none;stroke:#ff0000;stroke-width:0.35433072;stroke-miterlimit:4;stroke-opacity:1;stroke-dasharray:none"
     inkscape:label="part"
     id="path6130" />
  <path
     inkscape:connector-curvature="0"
     d="m 1785.0719,650.1198 -32.3208,0 0,14.1732 -28.6655,0 0,-14.1732 -32.1615,0 0,14.1732 -28.6653,0 0,-14.1732 -32.1614,0 0,14.1732 -28.6654,0 0,-14.1732 -32.1614,0 0,14.1732 -28.6654,0 0,-14.1732 -32.1614,0 0,14.1732 -28.6653,0 0,-14.1732 -32.1614,0 0,14.1732 -28.6654,0 0,-14.1732 -32.1614,0 0,14.1732 -28.6654,0 0,-14.1732 -32.1614,0 0,14.1732 -28.6653,0 0,-14.1732 -32.1615,0 0,14.1732 -28.6653,0 0,-14.1732 -32.1614,0 0,14.1732 -28.6654,0 0,-14.1732 -32.1614,0 0,14.1732 -28.6654,0 0,-14.1732 -32.3208,0"
     style="fill:none;stroke:#ff0000;stroke-width:0.35433072;stroke-miterlimit:4;stroke-opacity:1;stroke-dasharray:none"
     inkscape:label="part"
     id="path6132" />
  <path
     inkscape:connector-curvature="0"
     d="m 1083.497,650.1198 0,-14.3327 14.1732,0 0,-28.02758 -14.1732,0 0,-28.66535 14.1732,0 0,-28.02756 -14.1732,0 0,-28.66536 14.1732,0 0,-28.02755 -14.1732,0 0,-28.66536 14.1732,0 0,-28.02756 -14.1732,0 0,-28.66535 14.1732,0 0,-28.02756 -14.1732,0 0,-14.33268"
     style="fill:none;stroke:#ff0000;stroke-width:0.35433072;stroke-miterlimit:4;stroke-opacity:1;stroke-dasharray:none"
     inkscape:label="part"
     id="path6134" />
  <rect
     style="fill:none;stroke:#ff0000;stroke-width:0.35433072;stroke-miterlimit:4;stroke-opacity:1;stroke-dasharray:none"
     id="rect6136"
     width="45.798168"
     height="81.231239"
     x="1410.8844"
     y="402.23718" />
  <rect
     style="fill:none;stroke:#ff0000;stroke-width:0.44756445;stroke-miterlimit:4;stroke-opacity:1;stroke-dasharray:none"
     id="rect6138"
     width="20.634222"
     height="123.85478"
     x="1203.4689"
     y="392.67072" />
  <rect
     y="391.25653"
     x="1635.2246"
     height="123.85478"
     width="20.634222"
     id="rect6142"
     style="fill:none;stroke:#ff0000;stroke-width:0.44756445;stroke-miterlimit:4;stroke-opacity:1;stroke-dasharray:none" />
</svg>
